<?xml version="1.0" encoding="utf-8"?>
<!-- Generator: Adobe Illustrator 16.0.3, SVG Export Plug-In . SVG Version: 6.00 Build 0)  -->
<!DOCTYPE svg PUBLIC "-//W3C//DTD SVG 1.1//EN" "http://www.w3.org/Graphics/SVG/1.1/DTD/svg11.dtd">
<svg version="1.1" id="Layer_1" xmlns="http://www.w3.org/2000/svg" xmlns:xlink="http://www.w3.org/1999/xlink" x="0px" y="0px"
	 width="128px" height="128px" viewBox="0 0 128 128" enable-background="new 0 0 128 128" xml:space="preserve">
<g transform="translate(0.000000,128.000000) scale(0.100000,-0.100000)">
	<path d="M1443.965,1238.042c-6.025-2.158-27.607-27.651-48.515-55.854c-44.277-58.477-234.961-268.652-286.621-314.36
		c-19.072-17.593-74.287-57.578-122.852-88.726c-110.137-71.895-126.25-86.626-216.992-188.086
		c-40.879-45.312-79.746-83.603-86.621-85.244c-8.271-1.943-36.67,16.738-73.877,47.9c-53.799,46.094-82.07,61.201-247.354,136.079
		C258.418,736.626,136.357,797.783,89.541,826.65S4.043,874.668,3.955,868.828c0.645-18.013,62.305-66.592,199.15-153.33
		c101.963-65.19,151.914-104.238,213.115-163.105c44.805-41.699,77.754-79.677,73.447-82.881
		c-14.59-12.158-154.434-4.648-189.922,10.195c-62.793,25.811-56.074,0.518,8.564-29.941
		c30.518-15.303,120.479-63.721,199.521-108.916c132.549-74.688,151.963-83.145,250.498-106.279
		c57.949-14.6,119.736-26.836,136.709-27.891c23.633-1.66,36.914-8.682,54.541-27.773c31.475-34.668,34.043-36.25,39.932-15.225
		c3.555,9.561-0.82,31.064-9.707,47.09c-8.379,16.914-13.262,37.568-10.586,47.656c2.695,10.078-7.627,35.234-21.426,56.68
		c-13.818,21.426-26.621,54.004-28.105,72.559c-1.689,31.572,1.133,38.057,47.246,91.865
		c53.564,62.119,112.959,108.906,190.098,148.271c31.074,16.099,63.135,43.325,94.277,80.518
		c26.113,30.908,61.592,71.289,79.297,88.584c39.707,37.744,122.676,202.769,139.502,275.806
		C1493.437,1173.452,1479.687,1255.938,1443.965,1238.042z"/>
</g>
</svg>
